<?xml version="1.0" encoding="utf-8"?>
<!-- Generator: Adobe Illustrator 22.0.0, SVG Export Plug-In . SVG Version: 6.00 Build 0)  -->
<svg version="1.1" id="Layer_1" xmlns="http://www.w3.org/2000/svg" xmlns:xlink="http://www.w3.org/1999/xlink" x="0px" y="0px"
	 width="185px" height="94.9px" viewBox="0 0 185 94.9" style="enable-background:new 0 0 185 94.9;" xml:space="preserve">
<style type="text/css">
	.st0{fill:#FFF32A;}
	.st1{fill:#0A0A0D;}
</style>
<g>
	<path class="st0" d="M167.5,0.9c10.1-2.7,19.4,6.3,17.2,16.5c-9.7,44.3-47.2,77.4-92.1,77.4c-45.1,0-82.8-33.4-92.3-78.1
		c-2.1-10,7-18.8,17-16.4C46.6,7.5,105.4,17.2,167.5,0.9z"/>
	<g>
		<path class="st1" d="M42.6,25.6c1.2,0,2.1,0.6,2.6,1.5l4.1,7.3l4.1-7.3c0.5-0.9,1.4-1.5,2.6-1.5c1.8,0,3,1.3,3,2.9v13.8
			c0,1.2-0.9,2.2-2.3,2.2c-1.4,0-2.3-1-2.3-2.2v-8.2L51.6,39c-0.5,0.8-1.2,1.5-2.3,1.5c-1.1,0-1.9-0.7-2.3-1.5l-2.8-4.9v8.2
			c0,1.2-0.9,2.2-2.3,2.2c-1.4,0-2.3-1-2.3-2.2V28.5C39.5,26.9,40.7,25.6,42.6,25.6z"/>
		<path class="st1" d="M74.5,27.9c0-1.3,1.1-2.3,2.4-2.3s2.4,1,2.4,2.3v12.2h5.9c1.1,0,2,1,2,2.1c0,1.2-0.9,2.1-2,2.1h-8.2
			c-1.3,0-2.4-1-2.4-2.3V27.9z"/>
		<path class="st1" d="M94.2,40.1h8c1.1,0,2,1,2,2.1c0,1.2-0.9,2.1-2,2.1H91.8c-1.3,0-2.4-1-2.4-2.3V28.1c0-1.3,1.1-2.3,2.4-2.3
			h10.4c1.1,0,2,1,2,2.1c0,1.2-0.9,2.1-2,2.1h-8v2.8h6.6c1.1,0,2,1,2,2.1c0,1.2-0.9,2.1-2,2.1h-6.6V40.1z"/>
		<path class="st1" d="M117.4,30.9c-0.8,0-1.4-0.4-2.2-0.7c-0.6-0.2-1.3-0.5-2.1-0.5c-1.4,0-2,0.4-2,1.1c0,0.8,0.9,1.2,2.2,1.6
			c1.5,0.5,3.6,0.9,5,2c1.2,0.9,2,2.2,2,4.2c0,3.7-3.3,6-7.4,6c-1,0-3.1-0.2-4.7-0.8c-1.2-0.5-2.2-1.2-2.2-2.4c0-1.3,1-2.3,2.3-2.3
			c0.7,0,1.2,0.3,1.9,0.7c0.7,0.4,1.5,0.7,2.7,0.7c2,0,2.2-1,2.2-1.5c0-0.9-1-1.4-2.3-1.8c-1.4-0.5-3.3-0.9-4.6-1.9
			c-1.2-0.9-2.1-2.3-2.1-4.4c0-3,2.5-5.3,7.3-5.3c1.1,0,3,0.1,4.4,0.7c1.1,0.5,2,1.2,2,2.4C119.7,29.9,118.7,30.9,117.4,30.9z"/>
		<path class="st1" d="M67.8,49.5c1.2,0,2.1,0.6,2.6,1.5l4.1,7.3l4.1-7.3c0.5-0.9,1.4-1.5,2.6-1.5c1.8,0,3,1.3,3,2.9v13.8
			c0,1.2-0.9,2.2-2.3,2.2s-2.3-1-2.3-2.2V58l-2.7,4.9c-0.5,0.8-1.2,1.5-2.3,1.5c-1.1,0-1.9-0.7-2.3-1.5L69.4,58v8.2
			c0,1.2-0.9,2.2-2.3,2.2c-1.4,0-2.3-1-2.3-2.2V52.4C64.8,50.8,66,49.5,67.8,49.5z"/>
		<path class="st1" d="M99.7,51.8c0-1.3,1.1-2.3,2.4-2.3c1.3,0,2.4,1,2.4,2.3V64h5.9c1.1,0,2,1,2,2.1c0,1.2-0.9,2.1-2,2.1h-8.2
			c-1.3,0-2.4-1-2.4-2.3V51.8z"/>
		<path class="st1" d="M119.4,64h8c1.1,0,2,1,2,2.1c0,1.2-0.9,2.1-2,2.1h-10.4c-1.3,0-2.4-1-2.4-2.3V52.1c0-1.3,1.1-2.3,2.4-2.3
			h10.4c1.1,0,2,1,2,2.1c0,1.2-0.9,2.1-2,2.1h-8v2.8h6.6c1.1,0,2,1,2,2.1c0,1.2-0.9,2.1-2,2.1h-6.6V64z"/>
		<path class="st1" d="M142.7,54.8c-0.8,0-1.4-0.4-2.2-0.7c-0.6-0.2-1.3-0.5-2.1-0.5c-1.4,0-2,0.4-2,1.1c0,0.8,0.9,1.2,2.2,1.6
			c1.5,0.5,3.6,0.9,5,2c1.2,0.9,2,2.2,2,4.2c0,3.7-3.3,6-7.4,6c-1,0-3.1-0.2-4.7-0.8c-1.2-0.5-2.2-1.2-2.2-2.4c0-1.3,1-2.3,2.3-2.3
			c0.7,0,1.2,0.3,1.9,0.7c0.7,0.4,1.5,0.7,2.7,0.7c2,0,2.2-1,2.2-1.5c0-0.9-1-1.4-2.3-1.8c-1.4-0.5-3.3-0.9-4.6-1.9
			c-1.2-0.9-2.1-2.3-2.1-4.4c0-3,2.5-5.3,7.3-5.3c1.1,0,3,0.1,4.4,0.7c1.1,0.5,2,1.2,2,2.4C144.9,53.8,144,54.8,142.7,54.8z"/>
		<path class="st1" d="M58.6,54.8c-0.8,0-1.4-0.4-2.2-0.7c-0.6-0.2-1.3-0.5-2.1-0.5c-1.4,0-2,0.4-2,1.1c0,0.8,0.9,1.2,2.2,1.6
			c1.5,0.5,3.6,0.9,5,2c1.2,0.9,2,2.2,2,4.2c0,3.7-3.3,6-7.4,6c-1,0-3.1-0.2-4.7-0.8c-1.2-0.5-2.2-1.2-2.2-2.4c0-1.3,1-2.3,2.3-2.3
			c0.7,0,1.2,0.3,1.9,0.7c0.7,0.4,1.5,0.7,2.7,0.7c2,0,2.2-1,2.2-1.5c0-0.9-1-1.4-2.3-1.8c-1.4-0.5-3.3-0.9-4.6-1.9
			c-1.2-0.9-2.1-2.3-2.1-4.4c0-3,2.5-5.3,7.3-5.3c1.1,0,3,0.1,4.4,0.7c1.1,0.5,2,1.2,2,2.4C60.8,53.8,59.9,54.8,58.6,54.8z"/>
		<g>
			<path class="st1" d="M130.2,34.7c0.4-0.1,0.7-0.5,0.7-0.9c0-0.4-0.3-0.6-0.7-0.6l-3.2,0.7c-0.4,0.1-0.8,0.5-0.8,1v4.8
				c0,0.4,0.4,0.7,0.8,0.6c0.4-0.1,0.8-0.5,0.8-1l0-1.5l2-0.4c0.4-0.1,0.7-0.5,0.7-0.9c0-0.4-0.3-0.6-0.7-0.6l-2,0.4l0-1.2
				L130.2,34.7z"/>
			<path class="st1" d="M134.6,32.2c-1.8,0.4-3.4,2-3.4,4c0,1.9,1.6,2.9,3.4,2.5c1.8-0.4,3.4-2,3.4-3.9
				C138,32.7,136.4,31.8,134.6,32.2z M136.2,35.1c0,1-0.7,1.8-1.7,2.1c-1,0.2-1.7-0.3-1.7-1.3c0-1,0.7-1.9,1.7-2.1
				C135.6,33.5,136.2,34.1,136.2,35.1z"/>
			<path class="st1" d="M144.2,32.3c0-0.7-0.3-1.2-0.7-1.5c-0.4-0.2-1-0.2-1.6-0.1l-2.1,0.5c-0.4,0.1-0.8,0.5-0.8,1v4.8
				c0,0.4,0.4,0.7,0.8,0.6c0.4-0.1,0.8-0.5,0.8-1v-1.3l1.1-0.2l1.1,1.5c0.1,0.2,0.4,0.3,0.7,0.2c0.4-0.1,0.8-0.6,0.8-1
				c0-0.1,0-0.3-0.1-0.4l-0.8-1.1c0.1-0.1,0.2-0.2,0.2-0.2C144,33.4,144.2,32.8,144.2,32.3z M142.3,33.3c-0.1,0.1-0.3,0.2-0.5,0.3
				l-1.2,0.3v-1.5l1.2-0.3c0.2,0,0.4,0,0.5,0c0.2,0.1,0.3,0.3,0.3,0.5C142.6,32.9,142.4,33.2,142.3,33.3z"/>
			<path class="st1" d="M143.3,38.6l-16.8,3.7c-0.5,0.1-0.8,0.6-0.7,1.1c0.1,0.4,0.5,0.7,0.9,0.7c0.1,0,0.1,0,0.2,0l16.8-3.7
				c0.5-0.1,0.8-0.6,0.7-1.1C144.3,38.8,143.8,38.5,143.3,38.6z"/>
			<path class="st1" d="M126.8,31.9c0.1,0,0.1,0,0.2,0l16.8-3.7c0.5-0.1,0.8-0.6,0.7-1.1c-0.1-0.5-0.6-0.8-1.1-0.7L126.6,30
				c-0.5,0.1-0.8,0.6-0.7,1.1C126,31.6,126.4,31.9,126.8,31.9z"/>
		</g>
		<path class="st1" d="M66.2,25.6c-1.3,0-2.4,1-2.4,2.3v1.9V42v0c0,1.3,1.1,2.3,2.4,2.3c1.3,0,2.4-1,2.4-2.3v-1.9V27.9v0
			C68.6,26.6,67.6,25.6,66.2,25.6z"/>
		<path class="st1" d="M91.8,49.8c-1.3,0-2.4,1-2.4,2.3V54v12.2v0c0,1.3,1.1,2.3,2.4,2.3c1.3,0,2.4-1,2.4-2.3v-1.9V52.1v0
			C94.2,50.8,93.2,49.8,91.8,49.8z"/>
	</g>
</g>
</svg>
